<svg width="32" height="63" viewBox="0 0 32 63" fill="none" xmlns="http://www.w3.org/2000/svg">
<path d="M17.8747 20.0107H14.1392V62.785H17.8747V20.0107Z" fill="white"/>
<path d="M15.3844 20.0107H14.1392V62.785H15.3844V20.0107Z" fill="#D9D8D7"/>
<path d="M21.9197 56.2881H17.8745V60.0236H21.9197V56.2881Z" fill="#D9D8D7"/>
<path d="M21.9197 50.6885H17.8745V54.4175H21.9197V50.6885Z" fill="#D9D8D7"/>
<path d="M25.6553 56.2881H21.9199V62.7849H25.6553V56.2881Z" fill="white"/>
<path d="M21.9197 45.0813H17.8745V48.8168H21.9197V45.0813Z" fill="#D9D8D7"/>
<path d="M25.6553 42.3203H21.9199V48.8171H25.6553V42.3203Z" fill="white"/>
<path d="M10.6486 0.210449H21.3648C26.8229 0.210449 31.268 4.65559 31.268 10.1137C31.268 15.5717 26.8229 20.0169 21.3648 20.0169H10.6486C5.19057 20.0169 0.745422 15.5717 0.745422 10.1137C0.745422 4.65559 5.18412 0.210449 10.6486 0.210449ZM21.3584 3.9395H10.6422C7.24218 3.9395 4.47447 6.7072 4.47447 10.1072C4.47447 13.5072 7.24218 16.275 10.6422 16.275H21.3584C24.7584 16.275 27.5261 13.5072 27.5261 10.1072C27.5261 6.7072 24.7584 3.9395 21.3584 3.9395Z" fill="white"/>
<path d="M21.3585 2.69434H10.6423C6.55843 2.69434 3.2294 6.02336 3.2294 10.1072C3.2294 14.1911 6.55197 17.5201 10.6423 17.5201H21.3585C25.4424 17.5201 28.7714 14.1976 28.7714 10.1072C28.7714 6.02336 25.4488 2.69434 21.3585 2.69434ZM21.3585 3.93953C24.7585 3.93953 27.5262 6.70723 27.5262 10.1072C27.5262 13.5072 24.7585 16.275 21.3585 16.275H10.6423C7.2423 16.275 4.4746 13.5072 4.4746 10.1072C4.4746 6.70723 7.2423 3.93953 10.6423 3.93953H21.3585Z" fill="#D9D8D7"/>
</svg>
