<svg width="32" height="30" viewBox="0 0 32 30" fill="none" xmlns="http://www.w3.org/2000/svg">
<path d="M27.2172 29.4251C27.2172 29.4251 25.892 27.9649 24.3604 27.9649C22.8289 27.9649 21.6217 29.4251 18.2503 29.4251C14.8788 29.4251 10.5031 27.2512 9.63155 21.4505L4.96004 29.4251H0L7.06464 17.3661C7.06464 17.3661 9.96584 19.3844 12.7271 20.408C12.7271 20.408 11.9889 22.3747 13.3559 24.6381C14.7229 26.9009 19.5244 28.9976 24.3465 25.3923C24.3465 25.3923 26.9711 26.5865 27.2165 29.4257L27.2172 29.4251Z" fill="url(#paint0_linear_1_335)"/>
<path d="M30.308 23.7302C30.308 23.7302 30.3047 23.7257 30.3033 23.7244L16.8214 0.712891L9.80257 12.6922C4.3318 9.98166 3.90398 7.33326 3.90398 7.33326C3.90398 7.33326 3.38993 10.615 5.65903 13.5523C6.26195 14.3321 7.12091 15.0125 8.0966 15.604C10.7889 17.2334 14.3653 18.1753 15.8703 18.6302C17.9212 19.2498 19.3711 19.8152 19.1516 21.1897C18.932 22.5636 16.7995 22.2132 16.3624 21.3786C16.3624 21.3786 15.7244 22.7832 17.2831 24.2839C18.7589 25.7035 22.2968 25.8499 24.4293 23.1564C24.4293 23.1564 29.8205 26.1283 28.6836 29.4258C28.6836 29.4258 32.6434 27.7284 30.308 23.7309V23.7302ZM20.2088 22.5178C19.9329 22.5178 19.7074 22.3381 19.7074 22.1139C19.7074 21.8897 19.9329 21.71 20.2088 21.71C20.4848 21.71 20.7103 21.8897 20.7103 22.1139C20.7103 22.3381 20.4861 22.5178 20.2088 22.5178ZM13.8028 14.3321L16.8221 9.17838L21.6302 17.387C20.3077 16.7341 17.9623 15.751 13.8035 14.3321H13.8028Z" fill="url(#paint1_linear_1_335)"/>
<defs>
<linearGradient id="paint0_linear_1_335" x1="0" y1="17.3661" x2="9.92769" y2="37.8182" gradientUnits="userSpaceOnUse">
<stop stop-color="#0207F7"/>
<stop offset="0.686578" stop-color="#14FFFF"/>
</linearGradient>
<linearGradient id="paint1_linear_1_335" x1="3.854" y1="0.712891" x2="33.6217" y2="26.4453" gradientUnits="userSpaceOnUse">
<stop stop-color="#0207F7"/>
<stop offset="0.686578" stop-color="#14FFFF"/>
</linearGradient>
</defs>
</svg>
